<svg width="34" height="34" viewBox="0 0 34 34" fill="none" xmlns="http://www.w3.org/2000/svg">
<g clip-path="url(#clip0_46_224)">
<path d="M19.8336 30.2552C19.4753 30.2239 19.1768 30.072 18.9381 29.7995C18.7112 29.5171 18.6135 29.1968 18.6448 28.8385L19.3287 21.0222C19.36 20.664 19.5114 20.3709 19.783 20.1431C20.0663 19.9053 20.3871 19.8021 20.7453 19.8335L31.1671 20.7452C31.5254 20.7766 31.8179 20.9335 32.0448 21.2158C32.2835 21.4883 32.3872 21.8037 32.3559 22.1619L31.672 29.9783C31.6407 30.3365 31.4833 30.6345 31.2 30.8723C30.9285 31.1001 30.6136 31.1984 30.2553 31.167L19.8336 30.2552ZM25.4434 26.1516L30.9392 23.3507L31.0531 22.048L25.5573 24.8489L20.6314 21.1362L20.5174 22.4389L25.4434 26.1516Z" fill="#E0E4DB"/>
</g>
<g clip-path="url(#clip1_46_224)">
<path d="M9.37272 15.6729C8.38766 14.8463 7.58357 13.8337 6.96046 12.6352C6.33734 11.4366 5.98703 10.1291 5.90951 8.71258C5.89339 8.52834 5.94137 8.36944 6.05345 8.23588C6.16553 8.10231 6.31368 8.02747 6.49791 8.01135L8.59557 7.85103C8.76445 7.83626 8.91292 7.87548 9.04097 7.9687C9.16902 8.06192 9.25161 8.18813 9.28874 8.34732L9.81666 10.6681C9.84141 10.7742 9.84247 10.8747 9.81982 10.9695C9.79718 11.0643 9.75083 11.1534 9.68078 11.2369L8.48297 12.6644C8.71613 13.0308 8.97516 13.3832 9.26004 13.7219C9.54493 14.0605 9.86268 14.3769 10.2133 14.6711C10.5639 14.9653 10.9307 15.2233 11.3136 15.445C11.6966 15.6668 12.0887 15.8607 12.49 16.0267L13.6878 14.5992C13.7578 14.5157 13.8376 14.4546 13.927 14.4158C14.0164 14.3771 14.1156 14.3606 14.2244 14.3666L16.6016 14.4835C16.7648 14.4924 16.9034 14.5518 17.0174 14.6618C17.1315 14.7717 17.1959 14.9111 17.2107 15.08L17.417 17.1736C17.4332 17.3578 17.3852 17.5167 17.2731 17.6503C17.161 17.7839 17.0129 17.8587 16.8286 17.8748C15.4286 18.0514 14.0822 17.9353 12.7894 17.5262C11.4967 17.1172 10.3578 16.4994 9.37272 15.6729Z" fill="#E0E4DB"/>
</g>
<g clip-path="url(#clip2_46_224)">
<path d="M11.8783 8.39105V1.52564C11.8783 1.31586 11.953 1.13628 12.1024 0.986897C12.2518 0.837511 12.4313 0.762817 12.6411 0.762817H18.7437C18.9535 0.762817 19.1331 0.837511 19.2825 0.986897C19.4318 1.13628 19.5065 1.31586 19.5065 1.52564V6.10258C19.5065 6.31236 19.4318 6.49194 19.2825 6.64133C19.1331 6.79071 18.9535 6.86541 18.7437 6.86541H13.4039L11.8783 8.39105Z" fill="#E0E4DB"/>
</g>
<g clip-path="url(#clip3_46_224)">
<path d="M25.1399 13.0084C24.3286 12.6127 23.7781 11.9941 23.4883 11.1526C23.1985 10.3111 23.2515 9.48464 23.6472 8.67332L25.2356 5.41662C25.283 5.31949 25.3556 5.2541 25.4533 5.22044C25.5511 5.18678 25.6485 5.19364 25.7456 5.24101C25.8428 5.28838 25.9082 5.36095 25.9418 5.4587C25.9755 5.55645 25.9686 5.65389 25.9212 5.75102L24.918 7.80789L25.6037 8.14229L26.9413 5.3998C26.9886 5.30267 27.0612 5.23728 27.1589 5.20362C27.2567 5.16996 27.3541 5.17682 27.4513 5.22419C27.5484 5.27156 27.6138 5.34413 27.6475 5.44188C27.6811 5.53963 27.6743 5.63707 27.6269 5.7342L26.2893 8.47669L26.9749 8.81109L28.4797 5.72579C28.5271 5.62866 28.5996 5.56327 28.6974 5.52961C28.7951 5.49595 28.8926 5.50281 28.9897 5.55018C29.0868 5.59755 29.1522 5.67012 29.1859 5.76787C29.2196 5.86562 29.2127 5.96306 29.1653 6.06019L27.6605 9.14549L28.3461 9.47989L29.5165 7.08021C29.5639 6.98308 29.6365 6.91769 29.7342 6.88403C29.832 6.85037 29.9294 6.85723 30.0266 6.9046C30.1237 6.95197 30.1891 7.02454 30.2227 7.12229C30.2564 7.22004 30.2495 7.31748 30.2022 7.41461L29.2408 9.38577C29.0166 9.42494 28.8156 9.51435 28.6379 9.65399C28.4601 9.79363 28.3225 9.96343 28.225 10.1634L28.016 10.5919L27.5874 10.3829C27.2275 10.2074 26.8626 10.1832 26.4929 10.3106C26.1231 10.4379 25.8505 10.6815 25.6749 11.0415L25.4659 11.47L25.9801 11.7208L26.1891 11.2923C26.295 11.0751 26.4585 10.9285 26.6795 10.8524C26.9005 10.7763 27.1195 10.7912 27.3366 10.8971L28.2794 11.3569L28.7392 10.4142C28.8451 10.1971 29.0085 10.0505 29.2295 9.97439C29.4505 9.89829 29.6696 9.91319 29.8867 10.0191L30.1438 10.1445L29.475 11.5157C29.0793 12.327 28.4607 12.8776 27.6192 13.1673C26.7776 13.4571 25.9512 13.4041 25.1399 13.0084Z" fill="#E0E4DB"/>
</g>
<path d="M7 25.5V24.8437C7 24.5451 7.15278 24.3021 7.45833 24.1146C7.76389 23.9271 8.16667 23.8333 8.66667 23.8333C8.75694 23.8333 8.84375 23.8351 8.92708 23.8385C9.01042 23.842 9.09028 23.8507 9.16667 23.8646C9.06944 24.0104 8.99653 24.1632 8.94792 24.3229C8.89931 24.4826 8.875 24.6493 8.875 24.8229V25.5H7ZM9.5 25.5V24.8229C9.5 24.6007 9.56076 24.3976 9.68229 24.2135C9.80382 24.0295 9.97569 23.8681 10.1979 23.7292C10.4201 23.5903 10.6858 23.4861 10.9948 23.4167C11.3038 23.3472 11.6389 23.3125 12 23.3125C12.3681 23.3125 12.7066 23.3472 13.0156 23.4167C13.3247 23.4861 13.5903 23.5903 13.8125 23.7292C14.0347 23.8681 14.2049 24.0295 14.3229 24.2135C14.441 24.3976 14.5 24.6007 14.5 24.8229V25.5H9.5ZM15.125 25.5V24.8229C15.125 24.6424 15.1024 24.4722 15.0573 24.3125C15.0122 24.1528 14.9444 24.0035 14.8542 23.8646C14.9306 23.8507 15.0087 23.842 15.0885 23.8385C15.1684 23.8351 15.25 23.8333 15.3333 23.8333C15.8333 23.8333 16.2361 23.9253 16.5417 24.1094C16.8472 24.2934 17 24.5382 17 24.8437V25.5H15.125ZM10.3854 24.6667H13.625C13.5556 24.5278 13.3628 24.4062 13.0469 24.3021C12.7309 24.1979 12.3819 24.1458 12 24.1458C11.6181 24.1458 11.2691 24.1979 10.9531 24.3021C10.6372 24.4062 10.4479 24.5278 10.3854 24.6667ZM8.66667 23.4167C8.4375 23.4167 8.24132 23.3351 8.07813 23.1719C7.91493 23.0087 7.83333 22.8125 7.83333 22.5833C7.83333 22.3472 7.91493 22.1493 8.07813 21.9896C8.24132 21.8299 8.4375 21.75 8.66667 21.75C8.90278 21.75 9.10069 21.8299 9.26042 21.9896C9.42014 22.1493 9.5 22.3472 9.5 22.5833C9.5 22.8125 9.42014 23.0087 9.26042 23.1719C9.10069 23.3351 8.90278 23.4167 8.66667 23.4167ZM15.3333 23.4167C15.1042 23.4167 14.908 23.3351 14.7448 23.1719C14.5816 23.0087 14.5 22.8125 14.5 22.5833C14.5 22.3472 14.5816 22.1493 14.7448 21.9896C14.908 21.8299 15.1042 21.75 15.3333 21.75C15.5694 21.75 15.7674 21.8299 15.9271 21.9896C16.0868 22.1493 16.1667 22.3472 16.1667 22.5833C16.1667 22.8125 16.0868 23.0087 15.9271 23.1719C15.7674 23.3351 15.5694 23.4167 15.3333 23.4167ZM12 23C11.6528 23 11.3576 22.8785 11.1146 22.6354C10.8715 22.3924 10.75 22.0972 10.75 21.75C10.75 21.3958 10.8715 21.099 11.1146 20.8594C11.3576 20.6198 11.6528 20.5 12 20.5C12.3542 20.5 12.651 20.6198 12.8906 20.8594C13.1302 21.099 13.25 21.3958 13.25 21.75C13.25 22.0972 13.1302 22.3924 12.8906 22.6354C12.651 22.8785 12.3542 23 12 23ZM12 22.1667C12.1181 22.1667 12.217 22.1267 12.2969 22.0469C12.3767 21.967 12.4167 21.8681 12.4167 21.75C12.4167 21.6319 12.3767 21.533 12.2969 21.4531C12.217 21.3733 12.1181 21.3333 12 21.3333C11.8819 21.3333 11.783 21.3733 11.7031 21.4531C11.6233 21.533 11.5833 21.6319 11.5833 21.75C11.5833 21.8681 11.6233 21.967 11.7031 22.0469C11.783 22.1267 11.8819 22.1667 12 22.1667Z" fill="#E0E4DB"/>
<defs>
<clipPath id="clip0_46_224">
<rect width="15.6924" height="15.6924" fill="white" transform="translate(18.3678 17.0001) rotate(5)"/>
</clipPath>
<clipPath id="clip1_46_224">
<rect width="15.6924" height="15.6924" fill="white" transform="translate(12.021 24.7233) rotate(-140)"/>
</clipPath>
<clipPath id="clip2_46_224">
<rect width="9.15388" height="9.15388" fill="white" transform="translate(11.1155)"/>
</clipPath>
<clipPath id="clip3_46_224">
<rect width="9.15388" height="9.15388" fill="white" transform="translate(24.7003 3.03378) rotate(26)"/>
</clipPath>
</defs>
</svg>
