<svg width="60" height="60" viewBox="0 0 60 60" fill="none" xmlns="http://www.w3.org/2000/svg">
<path d="M43.6504 10.865C45.2219 10.9718 46.0076 11.0252 46.6426 11.3029C47.5616 11.7048 48.2952 12.4384 48.697 13.3573C48.9748 13.9924 49.0282 14.7781 49.135 16.3495L49.3786 19.9356C49.4218 20.5711 49.4434 20.8889 49.5125 21.1925C49.6123 21.6311 49.7857 22.0497 50.0253 22.4304C50.1911 22.6939 50.4005 22.9339 50.8194 23.4138L53.1828 26.1219C54.2184 27.3085 54.7363 27.9019 54.9889 28.5473C55.3545 29.4813 55.3545 30.5187 54.9889 31.4527C54.7363 32.0981 54.2184 32.6915 53.1828 33.8781L50.8194 36.5862C50.4005 37.0661 50.1911 37.3061 50.0253 37.5696C49.7857 37.9503 49.6123 38.3689 49.5125 38.8075C49.4434 39.1111 49.4218 39.4289 49.3786 40.0644L49.135 43.6505C49.0282 45.2219 48.9748 46.0076 48.697 46.6427C48.2952 47.5616 47.5616 48.2952 46.6426 48.6971C46.0076 48.9748 45.2219 49.0282 43.6504 49.135L40.0644 49.3787C39.4288 49.4219 39.1111 49.4435 38.8075 49.5125C38.3689 49.6124 37.9503 49.7858 37.5696 50.0253C37.3061 50.1911 37.0661 50.4006 36.5861 50.8194L33.8781 53.1828C32.6914 54.2185 32.0981 54.7363 31.4527 54.989C30.5187 55.3546 29.4812 55.3546 28.5473 54.989C27.9018 54.7363 27.3085 54.2185 26.1218 53.1828L23.4138 50.8194C22.9339 50.4006 22.6939 50.1911 22.4304 50.0253C22.0496 49.7858 21.6311 49.6124 21.1924 49.5125C20.8889 49.4435 20.5711 49.4219 19.9356 49.3787L16.3495 49.135C14.7781 49.0282 13.9924 48.9748 13.3573 48.6971C12.4384 48.2952 11.7048 47.5616 11.3029 46.6427C11.0252 46.0076 10.9718 45.2219 10.865 43.6505L10.6213 40.0644C10.5781 39.4289 10.5565 39.1111 10.4874 38.8075C10.3876 38.3689 10.2142 37.9503 9.97466 37.5696C9.80886 37.3061 9.59943 37.0661 9.18056 36.5862L6.81717 33.8781C5.78152 32.6915 5.26369 32.0981 5.01102 31.4527C4.64542 30.5187 4.64542 29.4813 5.01102 28.5473C5.26369 27.9019 5.78152 27.3085 6.81717 26.1219L9.18056 23.4138C9.59943 22.9339 9.80886 22.6939 9.97466 22.4304C10.2142 22.0497 10.3876 21.6311 10.4874 21.1925C10.5565 20.8889 10.5781 20.5711 10.6213 19.9356L10.865 16.3495C10.9718 14.7781 11.0252 13.9924 11.3029 13.3573C11.7048 12.4384 12.4384 11.7048 13.3573 11.3029C13.9924 11.0252 14.7781 10.9718 16.3495 10.865L19.9355 10.6213C20.5711 10.5781 20.8889 10.5566 21.1924 10.4875C21.6311 10.3876 22.0496 10.2143 22.4304 9.97469C22.6939 9.80889 22.9339 9.59946 23.4138 9.18059L26.1218 6.8172C27.3085 5.78155 27.9018 5.26372 28.5473 5.01105C29.4812 4.64545 30.5187 4.64545 31.4527 5.01105C32.0981 5.26372 32.6914 5.78155 33.8781 6.8172L36.5861 9.18059C37.0661 9.59946 37.3061 9.80889 37.5696 9.97469C37.9503 10.2143 38.3689 10.3876 38.8075 10.4875C39.1111 10.5566 39.4288 10.5781 40.0644 10.6213L43.6504 10.865Z" fill="#376A3E"/>
</svg>
