<svg width="29" height="29" viewBox="0 0 29 29" fill="none" xmlns="http://www.w3.org/2000/svg">
<path d="M8.5 22.6667L14.1667 18.3458L19.8333 22.6667L17.7083 15.6542L23.375 11.6167H16.4333L14.1667 4.25L11.9 11.6167H4.95833L10.625 15.6542L8.5 22.6667ZM14.1667 28.3333C12.2069 28.3333 10.3653 27.9615 8.64167 27.2177C6.91806 26.474 5.41875 25.4646 4.14375 24.1896C2.86875 22.9146 1.85938 21.4153 1.11563 19.6917C0.371875 17.9681 0 16.1264 0 14.1667C0 12.2069 0.371875 10.3653 1.11563 8.64167C1.85938 6.91806 2.86875 5.41875 4.14375 4.14375C5.41875 2.86875 6.91806 1.85938 8.64167 1.11563C10.3653 0.371875 12.2069 0 14.1667 0C16.1264 0 17.9681 0.371875 19.6917 1.11563C21.4153 1.85938 22.9146 2.86875 24.1896 4.14375C25.4646 5.41875 26.474 6.91806 27.2177 8.64167C27.9615 10.3653 28.3333 12.2069 28.3333 14.1667C28.3333 16.1264 27.9615 17.9681 27.2177 19.6917C26.474 21.4153 25.4646 22.9146 24.1896 24.1896C22.9146 25.4646 21.4153 26.474 19.6917 27.2177C17.9681 27.9615 16.1264 28.3333 14.1667 28.3333Z" fill="#E0E4DB"/>
</svg>
