<svg width="60" height="60" viewBox="0 0 60 60" fill="none" xmlns="http://www.w3.org/2000/svg">
<path d="M22.5269 8.17647C23.0909 7.67992 23.3729 7.43165 23.6323 7.23086C27.3829 4.32657 32.617 4.32657 36.3677 7.23086C36.627 7.43165 36.909 7.67992 37.4731 8.17647C37.662 8.34272 37.7564 8.42585 37.8512 8.50536C39.1793 9.61971 40.7638 10.3845 42.4611 10.7304C42.5822 10.7551 42.7059 10.7773 42.9534 10.8216C43.6924 10.954 44.0619 11.0203 44.3802 11.0983C48.9842 12.2265 52.2476 16.328 52.3206 21.0779C52.3257 21.4063 52.3079 21.7821 52.2722 22.5337C52.2603 22.7853 52.2543 22.9111 52.2514 23.035C52.2102 24.7705 52.6015 26.4889 53.3899 28.0347C53.4462 28.145 53.506 28.2558 53.6257 28.4773C53.9832 29.139 54.162 29.4698 54.2996 29.7679C56.29 34.0791 55.1253 39.1936 51.4657 42.2123C51.2126 42.421 50.9084 42.6413 50.2999 43.082C50.0961 43.2295 49.9943 43.3033 49.8958 43.3782C48.5163 44.428 47.4199 45.8061 46.7056 47.3877C46.6547 47.5005 46.6056 47.6165 46.5074 47.8484C46.2142 48.5411 46.0675 48.8874 45.9208 49.1811C43.7989 53.4288 39.0831 55.705 34.4466 54.7193C34.126 54.6512 33.7645 54.5502 33.0413 54.3481C32.7992 54.2804 32.6781 54.2466 32.5583 54.2162C30.8793 53.7898 29.1207 53.7898 27.4416 54.2162C27.3218 54.2466 27.2008 54.2804 26.9587 54.3481C26.2355 54.5502 25.8739 54.6512 25.5534 54.7193C20.9169 55.705 16.2011 53.4288 14.0791 49.1811C13.9324 48.8874 13.7858 48.5411 13.4926 47.8484C13.3944 47.6165 13.3453 47.5005 13.2943 47.3877C12.5801 45.8061 11.4836 44.428 10.1041 43.3782C10.0057 43.3033 9.90383 43.2295 9.70008 43.082C9.09157 42.6413 8.78731 42.421 8.5343 42.2123C4.87465 39.1936 3.70996 34.0791 5.7004 29.7679C5.83801 29.4698 6.01675 29.139 6.37423 28.4773C6.49392 28.2558 6.55377 28.145 6.61002 28.0347C7.39842 26.4889 7.78975 24.7705 7.74859 23.035C7.74565 22.9111 7.73968 22.7853 7.72775 22.5337C7.6921 21.7821 7.67428 21.4063 7.67932 21.0779C7.75232 16.328 11.0157 12.2265 15.6197 11.0983C15.938 11.0203 16.3076 10.954 17.0466 10.8216C17.294 10.7773 17.4177 10.7551 17.5388 10.7304C19.2362 10.3845 20.8207 9.61971 22.1488 8.50536C22.2436 8.42585 22.338 8.34272 22.5269 8.17647Z" fill="#376A3E"/>
</svg>
